<svg width="830" height="386" viewBox="0 0 830 386" fill="none" xmlns="http://www.w3.org/2000/svg">
<g clip-path="url(#clip0_68_776)">
<path d="M775.938 218.147C796.836 218.147 813.776 201.147 813.776 180.176C813.776 159.204 796.836 142.204 775.938 142.204C755.041 142.204 738.101 159.204 738.101 180.176C738.101 201.147 755.041 218.147 775.938 218.147Z" fill="#F2F2F2"/>
<path d="M775.938 190.168C781.438 190.168 785.896 185.694 785.896 180.175C785.896 174.657 781.438 170.183 775.938 170.183C770.439 170.183 765.981 174.657 765.981 180.175C765.981 185.694 770.439 190.168 775.938 190.168Z" fill="#E6E6E6"/>
<path d="M774.119 180.389C778.314 183.823 779.592 189.235 778.811 194.461C777.853 200.193 774.889 205.394 770.453 209.131C765.465 213.58 759.382 216.586 753.511 219.664C748.117 222.427 742.934 225.585 738.003 229.112C719.123 242.883 704.86 262.49 696.696 284.371C688.547 306.214 686.36 331.008 692.553 353.646C695.617 364.847 701.815 376.932 713.362 381.147C722.566 384.506 735.132 382.342 739.819 372.823C744.853 362.596 737.829 351.101 728.782 346.025C717.054 339.444 703.045 344.253 692.496 350.914C680.883 358.248 671.548 368.771 659.423 375.344C653.965 378.396 647.892 380.174 641.656 380.546C635.928 380.772 630.211 379.885 624.819 377.935C613.631 373.845 603.999 366.342 597.275 356.48C589.574 345.245 586.127 331.474 585.498 317.983C584.092 287.8 595.973 259.562 605.506 231.571C610.629 216.994 614.467 201.995 616.976 186.744C619.361 171.417 620.21 155.888 619.51 140.391C618.879 126.687 617.532 112.357 611.506 99.8419C606.206 88.8368 596.521 79.8297 584.276 77.5589C578.756 76.4718 573.037 77.1311 567.907 79.4459C566.16 80.2455 567.676 82.8299 569.414 82.0343C580.251 77.0735 593.059 81.9003 601.062 89.9103C610.409 99.2639 613.841 113.077 615.365 125.822C618.79 156.028 616.091 186.616 607.431 215.748C599.12 244.079 586.047 271.228 583.03 300.91C581.654 314.455 582.361 328.457 586.675 341.445C590.376 353.014 597.316 363.27 606.667 370.989C615.472 378.132 626.303 382.998 637.705 383.54C650.505 384.149 661.729 378.423 671.659 370.805C682.295 362.646 692.08 352.58 704.963 348.005C710.837 345.92 717.526 344.947 723.557 346.954C728.73 348.728 733.119 352.269 735.956 356.959C738.575 361.329 739.541 366.794 737.151 371.489C734.904 375.903 730.518 378.457 725.769 379.33C720.741 380.223 715.56 379.34 711.108 376.831C705.907 373.849 702.1 368.846 699.434 363.559C694.116 353.018 692.329 340.469 692.058 328.769C691.821 317.339 693.28 305.939 696.388 294.941C702.572 272.693 715.055 252.724 732.323 237.455C736.673 233.652 741.327 230.213 746.238 227.173C751.595 223.86 757.313 221.212 762.774 218.086C768.148 215.009 773.444 211.334 777.144 206.271C780.298 201.932 782.002 196.702 782.011 191.332C782.067 188.861 781.578 186.409 780.579 184.151C779.58 181.893 778.095 179.884 776.232 178.269C774.754 177.06 772.628 179.168 774.119 180.389V180.389Z" fill="#CCCCCC"/>
<path d="M420.881 355.045C434.112 363.627 449.417 368.442 465.161 368.975C464.88 369.643 464.564 370.297 464.215 370.933C462.383 374.328 459.793 377.252 456.648 379.477C452.924 382.107 448.552 383.66 444.009 383.967C439.466 384.274 434.926 383.323 430.884 381.218C426.843 379.113 423.455 375.934 421.091 372.029C418.726 368.123 417.476 363.642 417.476 359.072V355.045H420.881Z" fill="#351B1B"/>
<path d="M513.753 356.224V359.072C513.755 364.616 511.916 370.003 508.527 374.382C505.138 378.761 500.392 381.881 495.038 383.251C489.684 384.62 484.029 384.16 478.964 381.944C473.9 379.728 469.716 375.882 467.073 371.013C466.709 370.362 466.38 369.691 466.087 369.005C466.814 369.025 467.531 369.035 468.258 369.035C484.31 369.053 500.054 364.62 513.753 356.224Z" fill="#351B1B"/>
<path d="M547.249 55.0687C546.503 54.9588 545.746 54.8888 544.989 54.8389C553.588 74.7269 554.184 97.183 546.652 117.502C547.409 117.412 548.156 117.292 548.902 117.152C556.195 115.734 562.749 111.766 567.398 105.952C572.047 100.139 574.49 92.859 574.292 85.4076C574.094 77.9561 571.267 70.8172 566.315 65.2614C561.363 59.7057 554.607 56.0938 547.249 55.0687Z" fill="#351B1B"/>
<path d="M391.527 54.8391C390.771 54.8891 390.014 54.959 389.267 55.0689C381.91 56.094 375.154 59.706 370.201 65.2617C365.249 70.8174 362.422 77.9564 362.224 85.4078C362.026 92.8592 364.469 100.14 369.118 105.953C373.767 111.766 380.322 115.735 387.614 117.153C388.36 117.292 389.107 117.412 389.864 117.502C382.332 97.1832 382.928 74.7272 391.527 54.8391Z" fill="#351B1B"/>
<path d="M547.249 55.0687C539.046 35.4033 523.852 19.4999 504.618 10.4483C485.384 1.39665 463.484 -0.156958 443.173 6.08929C422.861 12.3355 405.588 25.9357 394.71 44.2475C383.832 62.5593 380.125 84.2753 384.309 105.177C388.493 126.078 400.27 144.672 417.352 157.347C434.433 170.022 455.6 175.872 476.739 173.761C497.879 171.65 517.481 161.729 531.739 145.925C545.997 130.121 553.892 109.563 553.891 88.244C553.887 76.8534 551.629 65.577 547.249 55.0687ZM546.652 117.502C539.368 137.151 525.019 153.353 506.429 162.918C487.839 172.483 466.355 174.719 446.205 169.185C426.055 163.652 408.699 150.749 397.552 133.018C386.406 115.287 382.276 94.0108 385.977 73.3775C389.678 52.7442 400.94 34.2483 417.548 21.53C434.155 8.81181 454.905 2.79254 475.713 4.65692C496.521 6.52131 515.881 16.1343 529.98 31.6039C544.08 47.0735 551.9 67.2791 551.899 88.244C551.896 98.2321 550.119 108.14 546.652 117.502V117.502Z" fill="#351B1B"/>
<path d="M512.07 68.7585H424.446C419.824 68.7585 415.392 70.6009 412.124 73.8804C408.857 77.1598 407.021 81.6077 407.021 86.2455C407.021 90.8833 408.857 95.3312 412.124 98.6106C415.392 101.89 419.824 103.732 424.446 103.732H512.07C516.692 103.732 521.124 101.89 524.392 98.6106C527.659 95.3312 529.495 90.8833 529.495 86.2455C529.495 81.6077 527.659 77.1598 524.392 73.8804C521.124 70.6009 516.692 68.7585 512.07 68.7585Z" fill="#0F172A"/>
<path d="M468.258 191.167C444.849 191.178 422.373 200.381 405.638 216.808C388.903 233.235 379.237 255.581 378.709 279.068C378.181 302.554 386.832 325.316 402.811 342.483C418.791 359.651 440.83 369.863 464.215 370.933C465.161 370.983 466.117 371.013 467.073 371.013C467.471 371.033 467.86 371.033 468.258 371.033C492.026 371.033 514.82 361.558 531.626 344.692C548.432 327.827 557.874 304.952 557.874 281.1C557.874 257.248 548.432 234.374 531.626 217.508C514.82 200.642 492.026 191.167 468.258 191.167ZM513.753 356.224C500.054 364.62 484.31 369.053 468.258 369.035C467.531 369.035 466.814 369.025 466.087 369.005C465.778 369.005 465.47 368.995 465.161 368.975C444.12 368.241 424.044 359.933 408.604 345.569C393.163 331.205 383.388 311.745 381.067 290.745C378.745 269.745 384.031 248.608 395.958 231.197C407.886 213.786 425.658 201.263 446.028 195.918C466.397 190.573 488.003 192.763 506.896 202.087C525.79 211.41 540.709 227.245 548.927 246.698C557.145 266.151 558.114 287.922 551.655 308.032C545.197 328.142 531.743 345.248 513.753 356.224Z" fill="#351B1B"/>
<path d="M531.155 258.95H491.99C489.261 258.95 486.643 257.862 484.714 255.926C482.784 253.989 481.7 251.363 481.7 248.624C481.7 245.886 482.784 243.259 484.714 241.323C486.643 239.386 489.261 238.299 491.99 238.299H531.155C533.884 238.299 536.501 239.386 538.431 241.323C540.36 243.259 541.444 245.886 541.444 248.624C541.444 251.363 540.36 253.989 538.431 255.926C536.501 257.862 533.884 258.95 531.155 258.95Z" fill="#3F3D56"/>
<path d="M494.601 253.865C497.485 253.865 499.823 251.519 499.823 248.624C499.823 245.73 497.485 243.384 494.601 243.384C491.717 243.384 489.379 245.73 489.379 248.624C489.379 251.519 491.717 253.865 494.601 253.865Z" fill="#F2F2F2"/>
<path d="M511.572 253.865C514.456 253.865 516.794 251.519 516.794 248.624C516.794 245.73 514.456 243.384 511.572 243.384C508.688 243.384 506.35 245.73 506.35 248.624C506.35 251.519 508.688 253.865 511.572 253.865Z" fill="#F2F2F2"/>
<path d="M528.544 253.865C531.428 253.865 533.766 251.519 533.766 248.624C533.766 245.73 531.428 243.384 528.544 243.384C525.66 243.384 523.322 245.73 523.322 248.624C523.322 251.519 525.66 253.865 528.544 253.865Z" fill="#16C2D5"/>
<path d="M163.922 381.413C172.876 373.82 178.315 361.825 176.889 350.148C175.463 338.471 166.628 327.737 155.169 325.257C143.709 322.777 130.646 329.642 127.166 340.875C125.25 319.217 123.043 296.651 111.569 278.207C101.179 261.506 83.1837 249.556 63.681 247.419C44.1782 245.281 23.6444 253.355 11.4812 268.803C-0.68192 284.251 -3.66002 306.709 4.85872 324.444C11.1342 337.509 22.6958 347.232 34.8095 355.142C73.4564 380.379 121.398 388.905 167.015 382.168L163.922 381.413Z" fill="#F2F2F2"/>
<path d="M30.7671 253.803C46.8593 266.957 61.6222 281.668 74.8422 297.724C88.0644 313.764 99.705 331.053 109.601 349.349C115.132 359.611 120.101 370.17 124.485 380.976C125.379 383.174 121.822 384.131 120.938 381.958C113.172 362.906 103.565 344.664 92.2532 327.493C80.9965 310.384 68.1125 294.411 53.7824 279.799C45.6771 271.539 37.1255 263.732 28.1661 256.413C26.3296 254.913 28.9459 252.315 30.7671 253.803Z" fill="white"/>
<path d="M160.886 65.9508C177.934 65.9508 191.754 52.082 191.754 34.974C191.754 17.8659 177.934 3.99707 160.886 3.99707C143.839 3.99707 130.019 17.8659 130.019 34.974C130.019 52.082 143.839 65.9508 160.886 65.9508Z" fill="#2F2E41"/>
<path d="M276.01 148.401C275.418 149.293 274.697 150.092 273.87 150.771C272.679 151.757 271.295 152.478 269.806 152.889C268.318 153.3 266.76 153.39 265.235 153.155C263.709 152.919 262.25 152.363 260.954 151.522C259.658 150.681 258.553 149.575 257.713 148.276C257.518 147.973 257.339 147.66 257.178 147.339L208.537 142.629C204.698 142.243 201.085 140.624 198.236 138.014C195.386 135.404 193.451 131.941 192.717 128.14L189.957 113.534L208.94 110.57L212.346 122.27L259.771 133.961C260.138 133.637 260.527 133.34 260.936 133.071C263.052 131.693 265.576 131.09 268.083 131.364C270.59 131.637 272.927 132.77 274.698 134.571C276.469 136.373 277.567 138.732 277.806 141.252C278.045 143.771 277.411 146.296 276.01 148.401L276.01 148.401Z" fill="#FFB8B8"/>
<path d="M213.512 120.504L192.307 126.253C191.16 126.562 189.937 126.403 188.907 125.809C187.877 125.215 187.124 124.235 186.813 123.084L179.386 95.493C178.59 92.5375 178.913 89.3911 180.292 86.6604C181.671 83.9297 184.009 81.8082 186.855 80.7049C189.7 79.6016 192.852 79.5946 195.703 80.6854C198.553 81.7761 200.9 83.8873 202.291 86.6118L216.331 114.113C216.636 114.709 216.804 115.366 216.823 116.035C216.842 116.705 216.711 117.371 216.441 117.983C216.171 118.596 215.768 119.14 215.261 119.576C214.754 120.012 214.157 120.329 213.512 120.504Z" fill="#2F2E41"/>
<path d="M201.229 373.854H213.436L219.244 326.601L201.226 326.602L201.229 373.854Z" fill="#FFB8B8"/>
<path d="M236.979 385.228L198.613 385.23L198.613 370.354L222.155 370.353C226.087 370.353 229.857 371.92 232.637 374.71C235.417 377.499 236.979 381.283 236.979 385.228Z" fill="#2F2E41"/>
<path d="M92.4256 361.915L103.847 366.242L125.914 324.095L109.058 317.709L92.4256 361.915Z" fill="#FFB8B8"/>
<path d="M121.867 385.23L85.9745 371.63L91.2106 357.713L113.236 366.059C116.914 367.452 119.889 370.255 121.508 373.85C123.127 377.446 123.256 381.539 121.867 385.23L121.867 385.23Z" fill="#2F2E41"/>
<path d="M200.843 362.879C199.897 362.878 198.975 362.576 198.21 362.017C197.446 361.458 196.877 360.67 196.586 359.767L165.451 263.274C165.359 262.988 165.183 262.737 164.946 262.552C164.71 262.368 164.423 262.259 164.124 262.24C163.825 262.221 163.527 262.292 163.27 262.445C163.012 262.598 162.805 262.826 162.678 263.098L119.528 355.23C119.061 356.226 118.246 357.016 117.238 357.449C116.229 357.883 115.098 357.931 114.057 357.584L97.0625 351.899C95.9832 351.535 95.0816 350.774 94.5404 349.769C93.9992 348.764 93.8587 347.59 94.1473 346.485L120.578 246.013C123.344 235.37 125.342 224.541 126.556 213.61C128.41 195.61 136.819 178.93 150.172 166.768C156.002 161.408 159.792 154.178 160.892 146.32L160.963 145.818L199.671 151.951L224.189 352.73C224.316 353.804 224.054 354.888 223.452 355.785C222.849 356.682 221.946 357.333 220.906 357.618L202.013 362.722C201.632 362.826 201.238 362.879 200.843 362.879Z" fill="#2F2E41"/>
<path d="M173.149 65.8032C186.656 65.8032 197.605 54.8151 197.605 41.2605C197.605 27.7059 186.656 16.7178 173.149 16.7178C159.642 16.7178 148.693 27.7059 148.693 41.2605C148.693 54.8151 159.642 65.8032 173.149 65.8032Z" fill="#FFB8B8"/>
<path d="M197.265 156.232C197.189 156.232 197.112 156.23 197.035 156.226L158.663 154.301C157.592 154.252 156.575 153.818 155.797 153.077C155.019 152.337 154.534 151.34 154.43 150.269L149.188 98.9789C148.804 95.2229 149.341 91.4296 150.753 87.9297C152.164 84.4299 154.407 81.3295 157.287 78.8988C160.166 76.4681 163.593 74.7809 167.271 73.9841C170.949 73.1873 174.765 73.3051 178.387 74.3273H178.387C181.387 75.1521 184.184 76.5957 186.597 78.5659C213.59 100.812 204.886 141.117 201.576 152.941C201.316 153.888 200.754 154.723 199.975 155.318C199.196 155.912 198.244 156.234 197.265 156.232Z" fill="#10217D"/>
<path d="M163.883 190.672C162.815 190.672 161.753 190.513 160.731 190.198C159.254 189.749 157.888 188.991 156.723 187.975C155.558 186.96 154.62 185.708 153.97 184.303C153.321 182.898 152.975 181.371 152.954 179.822C152.934 178.273 153.24 176.737 153.852 175.315C153.995 174.985 154.156 174.663 154.333 174.349L131.296 131.1C129.49 127.679 128.832 123.764 129.419 119.937C130.006 116.111 131.807 112.576 134.554 109.857L145.143 99.46L158.116 113.679L150.297 123.006L166.868 169.105C167.34 169.233 167.802 169.394 168.251 169.586C170.566 170.591 172.465 172.366 173.627 174.612C174.789 176.858 175.143 179.438 174.63 181.916C174.117 184.393 172.767 186.618 170.809 188.213C168.852 189.808 166.405 190.677 163.883 190.672L163.883 190.672Z" fill="#FFB8B8"/>
<path d="M152.408 123.002L135.893 108.469C135 107.682 134.456 106.572 134.378 105.382C134.3 104.193 134.696 103.021 135.478 102.124L154.254 80.6346C156.265 78.3328 159.055 76.8597 162.084 76.4994C165.113 76.1392 168.168 76.9173 170.66 78.6836C173.152 80.45 174.903 83.0796 175.577 86.0653C176.251 89.051 175.8 92.1815 174.31 94.853L159.272 121.817C158.946 122.402 158.494 122.906 157.949 123.293C157.404 123.68 156.78 123.939 156.122 124.053C155.464 124.166 154.789 124.131 154.146 123.949C153.504 123.767 152.91 123.444 152.408 123.002V123.002Z" fill="#2F2E41"/>
<path d="M157.411 65.1007C159.643 65.8947 162.378 66.5947 164.134 64.948C165.848 63.3403 165.536 60.4003 164.526 58.2345C163.516 56.0686 161.95 54.1412 161.47 51.7838C160.782 48.4052 162.561 44.8952 165.101 42.6924C167.641 40.4897 170.838 39.3326 173.96 38.2192L191.079 32.112C195.317 30.6003 199.883 28.8245 202.255 24.8462C205.686 19.0899 202.549 10.8616 196.921 7.50267C191.293 4.14374 184.183 4.76949 178.111 7.13133C174.752 8.43762 171.557 10.2377 168.084 11.1572C161.229 12.972 153.435 11.344 147.411 15.2227C142.168 18.5991 139.735 25.4884 139.912 31.9345C140.089 38.3807 142.454 44.5197 144.948 50.415C146.432 53.9223 148.018 57.47 150.532 60.2595C153.046 63.0491 156.678 65.0006 160.307 64.4873L157.411 65.1007Z" fill="#2F2E41"/>
<path d="M134.998 39.9702C145.996 39.9702 154.912 31.0225 154.912 19.9851C154.912 8.94763 145.996 0 134.998 0C123.999 0 115.083 8.94763 115.083 19.9851C115.083 31.0225 123.999 39.9702 134.998 39.9702Z" fill="#2F2E41"/>
<path d="M296.517 135.349L296.163 135.301L297.494 125.585C297.698 124.094 297.304 122.582 296.397 121.382C295.491 120.183 294.147 119.394 292.661 119.189L272.149 116.359C270.663 116.154 269.157 116.55 267.961 117.46C266.766 118.369 265.98 119.718 265.776 121.21L258.474 174.51C258.27 176.002 258.665 177.513 259.571 178.713C260.477 179.912 261.822 180.701 263.308 180.906L283.819 183.736C285.305 183.941 286.812 183.545 288.007 182.636C289.202 181.726 289.989 180.377 290.193 178.886L295.216 142.216L295.569 142.265L296.517 135.349Z" fill="#3F3D56"/>
<path d="M292.191 133.75L289.637 133.397C289.715 133.703 289.717 134.022 289.642 134.328C289.568 134.634 289.42 134.917 289.211 135.153C289.002 135.388 288.739 135.568 288.444 135.676C288.15 135.785 287.833 135.82 287.522 135.777L276.314 134.231C276.003 134.188 275.707 134.069 275.453 133.884C275.198 133.7 274.993 133.455 274.855 133.172C274.717 132.889 274.651 132.576 274.661 132.262C274.672 131.947 274.76 131.639 274.917 131.367L272.532 131.038C272.007 130.965 271.474 130.997 270.962 131.132C270.451 131.266 269.97 131.501 269.549 131.822C269.127 132.142 268.772 132.543 268.505 133.002C268.238 133.46 268.064 133.967 267.992 134.493L261.038 185.259C260.892 186.321 261.173 187.398 261.819 188.253C262.464 189.107 263.422 189.669 264.48 189.815L284.139 192.527C285.198 192.673 286.271 192.391 287.122 191.743C287.974 191.095 288.534 190.135 288.679 189.072L295.633 138.306C295.779 137.243 295.498 136.167 294.852 135.312C294.207 134.458 293.249 133.896 292.191 133.75V133.75Z" fill="white"/>
<path d="M278.074 164.187C284.123 164.187 289.027 159.266 289.027 153.196C289.027 147.125 284.123 142.204 278.074 142.204C272.025 142.204 267.121 147.125 267.121 153.196C267.121 159.266 272.025 164.187 278.074 164.187Z" fill="#243388"/>
<path d="M276.988 157.389C276.742 157.389 276.502 157.309 276.304 157.161L276.292 157.152L273.718 155.174C273.598 155.082 273.498 154.968 273.422 154.838C273.346 154.707 273.297 154.563 273.277 154.413C273.257 154.263 273.266 154.111 273.305 153.965C273.344 153.819 273.411 153.682 273.502 153.562C273.594 153.442 273.708 153.342 273.839 153.266C273.969 153.191 274.113 153.142 274.262 153.122C274.412 153.103 274.563 153.113 274.709 153.152C274.854 153.192 274.99 153.26 275.109 153.352L276.776 154.635L280.717 149.478C280.808 149.359 280.922 149.258 281.052 149.183C281.182 149.108 281.325 149.059 281.474 149.039C281.623 149.019 281.775 149.029 281.92 149.068C282.065 149.107 282.201 149.174 282.32 149.266C282.56 149.451 282.718 149.725 282.758 150.027C282.798 150.329 282.716 150.634 282.532 150.875L277.898 156.941C277.791 157.081 277.653 157.194 277.495 157.271C277.337 157.349 277.164 157.389 276.988 157.389Z" fill="white"/>
<path d="M842.814 386H7.10453C6.79069 385.999 6.49001 385.873 6.26841 385.65C6.04681 385.427 5.92236 385.125 5.92236 384.81C5.92236 384.495 6.04681 384.193 6.26841 383.97C6.49001 383.747 6.79069 383.621 7.10453 383.62H842.814C843.129 383.62 843.43 383.746 843.653 383.969C843.875 384.192 844 384.495 844 384.81C844 385.126 843.875 385.428 843.653 385.651C843.43 385.875 843.129 386 842.814 386Z" fill="#CCCCCC"/>
</g>
<defs>
<clipPath id="clip0_68_776">
<rect width="844" height="386" fill="white"/>
</clipPath>
</defs>
</svg>
