<svg width="509" height="467" viewBox="0 0 509 467" fill="none" xmlns="http://www.w3.org/2000/svg">
<path d="M72.4744 431.546C88.8183 442.046 107.725 447.937 127.175 448.588C126.828 449.407 126.437 450.207 126.006 450.985C123.742 455.138 120.543 458.716 116.658 461.437C112.058 464.655 106.657 466.555 101.045 466.931C95.4322 467.307 89.8239 466.143 84.8314 463.567C79.8389 460.992 75.6539 457.103 72.7331 452.325C69.8122 447.547 68.2676 442.064 68.2678 436.473V431.546H72.4744Z" fill="#3F3D56"/>
<path d="M187.201 432.989V436.473C187.203 443.256 184.932 449.847 180.745 455.204C176.558 460.561 170.695 464.379 164.082 466.054C157.468 467.73 150.482 467.167 144.226 464.456C137.97 461.745 132.801 457.039 129.536 451.082C129.086 450.285 128.68 449.465 128.318 448.625C129.216 448.649 130.102 448.662 131 448.662C150.829 448.684 170.278 443.26 187.201 432.989V432.989Z" fill="#3F3D56"/>
<path d="M131 231.049C102.082 231.062 74.3168 242.321 53.6437 262.419C32.9707 282.517 21.031 309.857 20.3786 338.591C19.7261 367.326 30.4126 395.173 50.1524 416.177C69.8922 437.182 97.1179 449.675 126.006 450.984C127.175 451.045 128.356 451.082 129.536 451.082C130.028 451.107 130.508 451.107 131 451.107C160.361 451.107 188.519 439.514 209.28 418.88C230.041 398.245 241.704 370.259 241.704 341.078C241.704 311.896 230.041 283.91 209.28 263.275C188.519 242.641 160.361 231.049 131 231.049V231.049ZM187.201 432.988C170.278 443.26 150.829 448.684 131 448.661C130.102 448.661 129.216 448.649 128.318 448.625C127.937 448.625 127.556 448.613 127.175 448.588C101.182 447.69 76.3819 437.526 57.3077 419.952C38.2335 402.379 26.1589 378.57 23.2907 352.878C20.4225 327.185 26.9522 301.325 41.6866 280.023C56.4209 258.721 78.3758 243.401 103.539 236.861C128.701 230.322 155.391 233.001 178.731 244.408C202.07 255.815 220.5 275.189 230.652 298.988C240.805 322.788 242.001 349.423 234.023 374.027C226.045 398.631 209.425 419.56 187.201 432.988Z" fill="#3F3D56"/>
<path d="M208.698 313.978H160.316C156.945 313.978 153.712 312.647 151.328 310.278C148.945 307.909 147.605 304.696 147.605 301.345C147.605 297.995 148.945 294.781 151.328 292.412C153.712 290.043 156.945 288.712 160.316 288.712H208.698C212.069 288.712 215.302 290.043 217.686 292.412C220.07 294.781 221.409 297.995 221.409 301.345C221.409 304.696 220.07 307.909 217.686 310.278C215.302 312.647 212.069 313.978 208.698 313.978V313.978Z" fill="#351B1B"/>
<path d="M163.991 307.922C167.553 307.868 170.396 304.953 170.341 301.413C170.287 297.872 167.354 295.046 163.792 295.1C160.23 295.155 157.386 298.069 157.441 301.61C157.496 305.151 160.428 307.977 163.991 307.922Z" fill="#F2F2F2"/>
<path d="M184.954 307.601C188.516 307.547 191.359 304.632 191.304 301.092C191.25 297.551 188.317 294.725 184.755 294.78C181.193 294.834 178.349 297.749 178.404 301.289C178.459 304.83 181.391 307.656 184.954 307.601Z" fill="#F2F2F2"/>
<path d="M205.917 307.28C209.479 307.226 212.322 304.311 212.267 300.771C212.213 297.23 209.28 294.404 205.718 294.459C202.156 294.513 199.312 297.428 199.367 300.968C199.422 304.509 202.354 307.335 205.917 307.28Z" fill="#EC7905"/>
<path d="M210.036 96.8921C209.268 96.7714 208.488 96.691 207.708 96.6309C216.326 116.886 216.657 139.642 208.633 160.131C209.415 160.05 210.187 159.938 210.959 159.805C218.497 158.461 225.306 154.523 230.174 148.692C235.043 142.862 237.654 135.517 237.543 127.966C237.432 120.416 234.607 113.148 229.57 107.458C224.533 101.767 217.611 98.0232 210.036 96.8921V96.8921Z" fill="#351B1B"/>
<path d="M49.4429 94.6997C48.6621 94.7408 47.8805 94.8021 47.1089 94.9041C39.5085 95.85 32.4955 99.4239 27.3184 104.99C22.1412 110.555 19.1359 117.752 18.8373 125.298C18.5388 132.844 20.9664 140.25 25.6881 146.197C30.4097 152.144 37.119 156.247 44.6215 157.776C45.3899 157.927 46.1586 158.058 46.9381 158.158C39.4263 137.48 40.3239 114.739 49.4429 94.6997V94.6997Z" fill="#351B1B"/>
<path d="M210.036 96.8919C201.824 76.8671 186.355 60.5654 166.633 51.1538C146.911 41.7422 124.345 39.8928 103.319 45.9648C82.2935 52.0368 64.3087 65.5966 52.8591 84.0101C41.4095 102.423 37.3127 124.376 41.3644 145.602C45.4162 166.828 57.3273 185.813 74.7837 198.868C92.2401 211.922 113.995 218.115 135.823 216.243C157.651 214.371 177.992 204.567 192.896 188.737C207.799 172.906 216.2 152.18 216.467 130.583C216.607 119.044 214.421 107.592 210.036 96.8919V96.8919ZM208.633 160.131C200.873 179.945 185.871 196.177 166.579 205.632C147.287 215.088 125.102 217.082 104.391 211.223C83.6798 205.364 65.9428 192.075 54.671 173.973C43.3991 155.87 39.4088 134.265 43.4853 113.41C47.5619 92.5542 59.41 73.959 76.6978 61.2841C93.9857 48.6093 115.461 42.7727 136.897 44.9232C158.333 47.0738 178.177 57.0556 192.523 72.9041C206.869 88.7527 214.678 109.32 214.414 130.558C214.284 140.676 212.327 150.69 208.633 160.131L208.633 160.131Z" fill="#3F3D56"/>
<path d="M173.584 110.317L83.2167 109.214C78.4505 109.156 73.8564 110.967 70.4449 114.248C67.0334 117.529 65.084 122.012 65.0255 126.71C64.9671 131.408 66.8043 135.937 70.1331 139.3C73.4619 142.664 78.0096 144.586 82.7758 144.644L173.143 145.747C177.909 145.805 182.503 143.994 185.914 140.713C189.326 137.432 191.275 132.949 191.334 128.251C191.392 123.553 189.555 119.024 186.226 115.661C182.897 112.297 178.35 110.375 173.584 110.317V110.317Z" fill="#351B1B"/>
<path d="M94.0417 136.856C98.2884 136.801 101.685 133.347 101.629 129.141C101.572 124.936 98.0837 121.572 93.837 121.627C89.5903 121.683 86.1935 125.137 86.25 129.342C86.3065 133.547 89.795 136.911 94.0417 136.856Z" fill="#F2F2F2"/>
<path d="M163.985 136.398C168.232 136.343 171.629 132.889 171.572 128.684C171.516 124.479 168.027 121.114 163.781 121.17C159.534 121.225 156.137 124.679 156.194 128.884C156.25 133.09 159.739 136.454 163.985 136.398Z" fill="#F2F2F2"/>
<path d="M470.806 241.099C491.703 241.099 508.644 224.098 508.644 203.127C508.644 182.156 491.703 165.155 470.806 165.155C449.909 165.155 432.968 182.156 432.968 203.127C432.968 224.098 449.909 241.099 470.806 241.099Z" fill="#F2F2F2"/>
<path d="M468.987 203.34C473.181 206.774 474.459 212.186 473.679 217.412C472.72 223.144 469.757 228.345 465.321 232.082C460.333 236.531 454.249 239.537 448.379 242.616C442.985 245.378 437.801 248.536 432.87 252.063C413.991 265.834 399.727 285.442 391.564 307.322C383.415 329.166 381.228 353.959 387.421 376.598C390.484 387.799 396.683 399.883 408.229 404.098C417.434 407.458 430 405.294 434.687 395.774C439.721 385.548 432.697 374.053 423.65 368.976C411.922 362.396 397.913 367.204 387.364 373.865C375.751 381.199 366.415 391.723 354.291 398.295C348.833 401.347 342.76 403.125 336.523 403.497C330.796 403.723 325.079 402.837 319.686 400.887C308.498 396.796 298.867 389.293 292.143 379.431C284.442 368.197 280.994 354.425 280.366 340.935C278.959 310.751 290.841 282.514 300.374 254.522C305.497 239.946 309.335 224.946 311.844 209.696C314.229 194.368 315.078 178.839 314.378 163.342C313.747 149.639 312.4 135.309 306.373 122.793C301.074 111.788 291.389 102.781 279.144 100.51C273.624 99.4232 267.904 100.083 262.774 102.397C261.028 103.197 262.544 105.781 264.282 104.986C275.118 100.025 287.926 104.852 295.93 112.862C305.277 122.215 308.709 136.028 310.233 148.774C313.658 178.979 310.959 209.568 302.299 238.7C293.988 267.031 280.914 294.179 277.898 323.862C276.521 337.406 277.228 351.408 281.542 364.396C285.244 375.965 292.184 386.221 301.535 393.94C310.339 401.083 321.171 405.95 332.573 406.492C345.372 407.1 356.596 401.374 366.527 393.756C377.162 385.598 386.948 375.531 399.831 370.957C405.704 368.871 412.394 367.898 418.425 369.906C423.598 371.679 427.986 375.22 430.824 379.91C433.443 384.281 434.409 389.745 432.019 394.44C429.772 398.855 425.385 401.408 420.637 402.282C415.609 403.174 410.428 402.291 405.976 399.782C400.774 396.801 396.968 391.797 394.301 386.511C388.984 375.969 387.197 363.421 386.926 351.72C386.689 340.291 388.148 328.89 391.256 317.892C397.44 295.645 409.923 275.676 427.191 260.406C431.541 256.603 436.195 253.164 441.105 250.125C446.462 246.811 452.18 244.164 457.642 241.037C463.015 237.961 468.311 234.285 472.012 229.222C475.166 224.884 476.87 219.654 476.878 214.283C476.934 211.813 476.445 209.361 475.446 207.102C474.447 204.844 472.963 202.836 471.099 201.221C469.622 200.011 467.496 202.12 468.987 203.34V203.34Z" fill="#CCCCCC"/>
</svg>
