<svg width="509" height="467" viewBox="0 0 509 467" fill="none" xmlns="http://www.w3.org/2000/svg">
<path d="M72.4744 431.546C88.8183 442.046 107.725 447.937 127.175 448.588C126.828 449.407 126.437 450.207 126.006 450.985C123.742 455.138 120.543 458.716 116.658 461.437C112.058 464.655 106.657 466.555 101.045 466.931C95.4322 467.307 89.8239 466.143 84.8314 463.567C79.8389 460.992 75.6539 457.103 72.7331 452.325C69.8122 447.547 68.2676 442.064 68.2678 436.473V431.546H72.4744Z" fill="#3F3D56"/>
<path d="M187.201 432.989V436.473C187.203 443.256 184.932 449.847 180.745 455.204C176.558 460.561 170.695 464.379 164.082 466.054C157.468 467.73 150.482 467.167 144.226 464.456C137.97 461.745 132.801 457.039 129.536 451.082C129.086 450.285 128.68 449.465 128.318 448.625C129.216 448.649 130.102 448.662 131 448.662C150.829 448.684 170.278 443.26 187.201 432.989V432.989Z" fill="#3F3D56"/>
<path d="M228.58 64.5383C227.657 64.4038 226.722 64.3182 225.788 64.2571C236.41 88.5892 237.146 116.063 227.842 140.923C228.777 140.813 229.699 140.666 230.622 140.495C239.63 138.76 247.727 133.904 253.47 126.792C259.214 119.68 262.231 110.773 261.986 101.657C261.741 92.5401 258.249 83.8058 252.132 77.0087C246.014 70.2115 237.668 65.7925 228.58 64.5383V64.5383Z" fill="#351B1B"/>
<path d="M36.2125 64.2568C35.2779 64.318 34.3428 64.4035 33.4202 64.538C24.3317 65.7922 15.9859 70.2112 9.86842 77.0084C3.75096 83.8055 0.258868 92.5398 0.013775 101.656C-0.231318 110.773 2.78653 119.68 8.53003 126.792C14.2735 133.904 22.37 138.76 31.3782 140.495C32.3007 140.666 33.2232 140.813 34.1584 140.923C24.8536 116.063 25.5897 88.589 36.2125 64.2568V64.2568Z" fill="#3F3D56"/>
<path d="M228.58 64.5381C218.446 40.4783 199.676 21.0212 175.916 9.94691C152.156 -1.12737 125.103 -3.02814 100.011 4.61387C74.9201 12.2559 53.5828 28.895 40.1446 51.2987C26.7065 73.7024 22.1271 100.271 27.296 125.843C32.465 151.415 47.0132 174.164 68.1144 189.671C89.2156 205.178 115.363 212.336 141.477 209.753C167.591 207.171 191.807 195.033 209.42 175.697C227.033 156.362 236.786 131.209 236.784 105.127C236.779 91.1907 233.99 77.3945 228.58 64.5381V64.5381ZM227.841 140.923C218.844 164.963 201.118 184.784 178.153 196.487C155.189 208.189 128.649 210.925 103.757 204.155C78.8656 197.384 57.4249 181.599 43.6554 159.906C29.8859 138.212 24.7849 112.182 29.3564 86.9381C33.9278 61.6941 47.8405 39.0652 68.3564 23.505C88.8722 7.94476 114.505 0.580434 140.21 2.86143C165.914 5.14242 189.829 16.9035 207.247 35.8299C224.665 54.7562 234.324 79.477 234.324 105.127C234.32 117.347 232.125 129.468 227.841 140.923V140.923Z" fill="#3F3D56"/>
<path d="M185.122 81.2871H76.878C71.169 81.2871 65.6938 83.5412 61.6569 87.5534C57.62 91.5657 55.3522 97.0075 55.3522 102.682C55.3522 108.356 57.62 113.798 61.6569 117.81C65.6938 121.822 71.169 124.076 76.878 124.076H185.122C190.831 124.076 196.306 121.822 200.343 117.81C204.38 113.798 206.648 108.356 206.648 102.682C206.648 97.0075 204.38 91.5657 200.343 87.5534C196.306 83.5412 190.831 81.2871 185.122 81.2871V81.2871Z" fill="#2A2536"/>
<path d="M131 231.049C102.082 231.062 74.3168 242.321 53.6437 262.419C32.9707 282.517 21.031 309.857 20.3786 338.591C19.7261 367.326 30.4126 395.173 50.1524 416.177C69.8922 437.182 97.1179 449.675 126.006 450.984C127.175 451.045 128.356 451.082 129.536 451.082C130.028 451.107 130.508 451.107 131 451.107C160.361 451.107 188.519 439.514 209.28 418.88C230.041 398.245 241.704 370.259 241.704 341.078C241.704 311.896 230.041 283.91 209.28 263.275C188.519 242.641 160.361 231.049 131 231.049V231.049ZM187.201 432.988C170.278 443.26 150.829 448.684 131 448.661C130.102 448.661 129.216 448.649 128.318 448.625C127.937 448.625 127.556 448.613 127.175 448.588C101.182 447.69 76.3819 437.526 57.3077 419.952C38.2335 402.379 26.1589 378.57 23.2907 352.878C20.4225 327.185 26.9522 301.325 41.6866 280.023C56.4209 258.721 78.3758 243.401 103.539 236.861C128.701 230.322 155.391 233.001 178.731 244.408C202.07 255.815 220.5 275.189 230.652 298.988C240.805 322.788 242.001 349.423 234.023 374.027C226.045 398.631 209.425 419.56 187.201 432.988Z" fill="#3F3D56"/>
<path d="M208.698 313.978H160.316C156.945 313.978 153.712 312.647 151.328 310.278C148.945 307.909 147.605 304.696 147.605 301.345C147.605 297.995 148.945 294.781 151.328 292.412C153.712 290.043 156.945 288.712 160.316 288.712H208.698C212.069 288.712 215.302 290.043 217.686 292.412C220.07 294.781 221.409 297.995 221.409 301.345C221.409 304.696 220.07 307.909 217.686 310.278C215.302 312.647 212.069 313.978 208.698 313.978V313.978Z" fill="#351B1B"/>
<path d="M163.991 307.922C167.553 307.868 170.396 304.953 170.341 301.413C170.287 297.872 167.354 295.046 163.792 295.1C160.23 295.155 157.386 298.069 157.441 301.61C157.496 305.151 160.428 307.977 163.991 307.922Z" fill="#F2F2F2"/>
<path d="M90.2545 114.506C95.3398 114.376 99.3564 110.155 99.2261 105.078C99.0957 100.001 94.8677 95.99 89.7825 96.1194C84.6973 96.2488 80.6806 100.47 80.8109 105.547C80.9413 110.624 85.1693 114.635 90.2545 114.506Z" fill="#F2F2F2"/>
<path d="M184.954 307.601C188.516 307.547 191.359 304.632 191.304 301.092C191.25 297.551 188.317 294.725 184.755 294.78C181.193 294.834 178.349 297.749 178.404 301.289C178.459 304.83 181.391 307.656 184.954 307.601Z" fill="#F2F2F2"/>
<path d="M174.016 112.922C179.101 112.793 183.118 108.572 182.987 103.495C182.857 98.4177 178.629 94.4067 173.544 94.5361C168.458 94.6656 164.442 98.8864 164.572 103.964C164.702 109.041 168.93 113.052 174.016 112.922Z" fill="#F2F2F2"/>
<path d="M205.917 307.28C209.479 307.226 212.322 304.311 212.267 300.771C212.213 297.23 209.28 294.404 205.718 294.459C202.156 294.513 199.312 297.428 199.367 300.968C199.422 304.509 202.354 307.335 205.917 307.28Z" fill="#EC7905"/>
<path d="M470.806 241.099C491.703 241.099 508.644 224.098 508.644 203.127C508.644 182.156 491.703 165.155 470.806 165.155C449.909 165.155 432.968 182.156 432.968 203.127C432.968 224.098 449.909 241.099 470.806 241.099Z" fill="#F2F2F2"/>
<path d="M468.987 203.34C473.181 206.774 474.459 212.186 473.679 217.412C472.72 223.144 469.757 228.345 465.321 232.082C460.333 236.531 454.249 239.537 448.379 242.616C442.985 245.378 437.801 248.536 432.87 252.063C413.991 265.834 399.727 285.442 391.564 307.322C383.415 329.166 381.228 353.959 387.421 376.598C390.484 387.799 396.683 399.883 408.229 404.098C417.434 407.458 430 405.294 434.687 395.774C439.721 385.548 432.697 374.053 423.65 368.976C411.922 362.396 397.913 367.204 387.364 373.865C375.751 381.199 366.415 391.723 354.291 398.295C348.833 401.347 342.76 403.125 336.523 403.497C330.796 403.723 325.079 402.837 319.686 400.887C308.498 396.796 298.867 389.293 292.143 379.431C284.442 368.197 280.994 354.425 280.366 340.935C278.959 310.751 290.841 282.514 300.374 254.522C305.497 239.946 309.335 224.946 311.844 209.696C314.229 194.368 315.078 178.839 314.378 163.342C313.747 149.639 312.4 135.309 306.373 122.793C301.074 111.788 291.389 102.781 279.144 100.51C273.624 99.4232 267.904 100.083 262.774 102.397C261.028 103.197 262.544 105.781 264.282 104.986C275.118 100.025 287.926 104.852 295.93 112.862C305.277 122.215 308.709 136.028 310.233 148.774C313.658 178.979 310.959 209.568 302.299 238.7C293.988 267.031 280.914 294.179 277.898 323.862C276.521 337.406 277.228 351.408 281.542 364.396C285.244 375.965 292.184 386.221 301.535 393.94C310.339 401.083 321.171 405.95 332.573 406.492C345.372 407.1 356.596 401.374 366.527 393.756C377.162 385.598 386.948 375.531 399.831 370.957C405.704 368.871 412.394 367.898 418.425 369.906C423.598 371.679 427.986 375.22 430.824 379.91C433.443 384.281 434.409 389.745 432.019 394.44C429.772 398.855 425.385 401.408 420.637 402.282C415.609 403.174 410.428 402.291 405.976 399.782C400.774 396.801 396.968 391.797 394.301 386.511C388.984 375.969 387.197 363.421 386.926 351.72C386.689 340.291 388.148 328.89 391.256 317.892C397.44 295.645 409.923 275.676 427.191 260.406C431.541 256.603 436.195 253.164 441.105 250.125C446.462 246.811 452.18 244.164 457.642 241.037C463.015 237.961 468.311 234.285 472.012 229.222C475.166 224.884 476.87 219.654 476.878 214.283C476.934 211.813 476.445 209.361 475.446 207.102C474.447 204.844 472.963 202.836 471.099 201.221C469.622 200.011 467.496 202.12 468.987 203.34V203.34Z" fill="#CCCCCC"/>
</svg>
