<svg width="172" height="305" viewBox="0 0 172 305" fill="none" xmlns="http://www.w3.org/2000/svg">
<path d="M48.0449 281.714C58.6917 288.565 71.008 292.408 83.6782 292.834C83.4519 293.368 83.1978 293.889 82.9168 294.397C81.442 297.107 79.3578 299.441 76.827 301.217C73.8304 303.316 70.3122 304.556 66.6562 304.801C63.0002 305.046 59.3468 304.287 56.0946 302.607C52.8423 300.926 50.1161 298.389 48.2134 295.272C46.3107 292.154 45.3045 288.577 45.3046 284.929V281.714H48.0449Z" fill="#3F3D56"/>
<path d="M122.78 282.656V284.929C122.782 289.355 121.302 293.655 118.575 297.15C115.848 300.645 112.028 303.136 107.72 304.229C103.412 305.323 98.8609 304.956 94.7856 303.187C90.7103 301.418 87.3433 298.347 85.2164 294.461C84.9233 293.941 84.6584 293.406 84.423 292.858C85.0079 292.874 85.585 292.882 86.1699 292.882C99.0869 292.897 111.757 289.358 122.78 282.656V282.656Z" fill="#3F3D56"/>
<path d="M149.736 42.2611C149.135 42.1734 148.526 42.1175 147.917 42.0776C154.837 57.9531 155.316 75.8784 149.255 92.098C149.864 92.0262 150.465 91.9305 151.066 91.8188C156.934 90.687 162.209 87.5189 165.95 82.8786C169.691 78.2383 171.657 72.4268 171.498 66.4788C171.338 60.5308 169.063 54.8322 165.078 50.3974C161.093 45.9626 155.656 43.0794 149.736 42.2611V42.2611Z" fill="#351B1B"/>
<path d="M24.423 42.0776C23.8142 42.1175 23.2051 42.1733 22.6041 42.2611C16.6836 43.0794 11.2469 45.9626 7.26185 50.3973C3.27679 54.8321 1.00196 60.5308 0.842296 66.4788C0.682636 72.4268 2.64854 78.2383 6.39 82.8786C10.1315 87.5189 15.4057 90.687 21.2738 91.8188C21.8748 91.9305 22.4758 92.0262 23.0849 92.098C17.0236 75.8784 17.5031 57.9531 24.423 42.0776V42.0776Z" fill="#3F3D56"/>
<path d="M149.736 42.2611C143.135 26.5633 130.907 13.8685 115.429 6.64316C99.9516 -0.582232 82.3283 -1.82239 65.9832 3.16363C49.6382 8.14965 35.7385 19.0058 26.9845 33.6231C18.2306 48.2403 15.2475 65.5749 18.6146 82.2592C21.9818 98.9435 31.4589 113.786 45.2047 123.904C58.9506 134.021 75.9837 138.691 92.995 137.006C110.006 135.321 125.781 127.402 137.255 114.787C148.728 102.171 155.082 85.7606 155.08 68.7429C155.077 59.6505 153.26 50.6492 149.736 42.2611V42.2611ZM149.255 92.098C143.393 107.783 131.847 120.716 116.887 128.351C101.927 135.986 84.6386 137.771 68.4234 133.354C52.2083 128.936 38.2413 118.637 29.2715 104.483C20.3017 90.3296 16.9788 73.3462 19.9568 56.8759C22.9347 40.4055 31.9978 25.6413 45.3623 15.4891C58.7269 5.33686 75.4247 0.532023 92.1694 2.02025C108.914 3.50848 124.493 11.182 135.839 23.5304C147.186 35.8789 153.478 52.0079 153.478 68.7429C153.475 76.7158 152.045 84.6245 149.255 92.098V92.098Z" fill="#3F3D56"/>
<path d="M121.426 53.189H50.9136C47.1946 53.189 43.6279 54.6596 40.9982 57.2774C38.3684 59.8952 36.8911 63.4457 36.8911 67.1478C36.8911 70.8499 38.3684 74.4004 40.9982 77.0181C43.6279 79.6359 47.1946 81.1066 50.9136 81.1066H121.426C125.145 81.1066 128.712 79.6359 131.342 77.0181C133.972 74.4004 135.449 70.8499 135.449 67.1478C135.449 63.4457 133.972 59.8952 131.342 57.2774C128.712 54.6596 125.145 53.189 121.426 53.189V53.189Z" fill="#2A2536"/>
<path d="M86.17 150.9C67.332 150.909 49.2451 158.255 35.7782 171.368C22.3112 184.481 14.5334 202.318 14.1084 221.066C13.6834 239.814 20.6448 257.983 33.5038 271.687C46.3628 285.391 64.0983 293.542 82.9168 294.397C83.6781 294.437 84.4473 294.461 85.2165 294.461C85.537 294.477 85.8496 294.477 86.17 294.477C105.296 294.477 123.639 286.913 137.163 273.45C150.688 259.988 158.286 241.728 158.286 222.689C158.286 203.649 150.688 185.39 137.163 171.927C123.639 158.464 105.296 150.9 86.17 150.9V150.9ZM122.781 282.656C111.757 289.357 99.087 292.896 86.17 292.881C85.5851 292.881 85.008 292.873 84.4231 292.857C84.1746 292.857 83.9263 292.849 83.6781 292.834C66.7457 292.248 50.5903 285.616 38.1649 274.15C25.7395 262.684 17.8738 247.15 16.0054 230.387C14.137 213.625 18.3907 196.752 27.989 182.854C37.5873 168.955 51.8892 158.96 68.2809 154.693C84.6725 150.426 102.059 152.174 117.263 159.617C132.467 167.059 144.473 179.699 151.086 195.227C157.699 210.755 158.479 228.134 153.282 244.186C148.084 260.239 137.258 273.894 122.781 282.656Z" fill="#3F3D56"/>
<path d="M136.784 205.007H105.267C103.071 205.007 100.965 204.139 99.4123 202.593C97.8595 201.047 96.9871 198.951 96.9871 196.765C96.9871 194.579 97.8595 192.482 99.4123 190.937C100.965 189.391 103.071 188.522 105.267 188.522H136.784C138.98 188.522 141.086 189.391 142.639 190.937C144.192 192.482 145.064 194.579 145.064 196.765C145.064 198.951 144.192 201.047 142.639 202.593C141.086 204.139 138.98 205.007 136.784 205.007V205.007Z" fill="#351B1B"/>
<path d="M107.661 201.056C109.981 201.021 111.834 199.119 111.798 196.809C111.762 194.499 109.852 192.655 107.531 192.691C105.211 192.727 103.359 194.628 103.394 196.938C103.43 199.248 105.34 201.092 107.661 201.056Z" fill="#F2F2F2"/>
<path d="M59.6274 74.8622C62.94 74.7777 65.5566 72.0239 65.4716 68.7113C65.3867 65.3986 62.6325 62.7817 59.3199 62.8661C56.0072 62.9506 53.3906 65.7045 53.4755 69.0171C53.5605 72.3297 56.3147 74.9466 59.6274 74.8622Z" fill="#F2F2F2"/>
<path d="M121.317 200.847C123.637 200.811 125.49 198.91 125.454 196.6C125.418 194.29 123.508 192.446 121.187 192.481C118.867 192.517 117.014 194.419 117.05 196.729C117.086 199.039 118.996 200.882 121.317 200.847Z" fill="#F2F2F2"/>
<path d="M114.191 73.8295C117.504 73.745 120.121 70.9912 120.036 67.6785C119.951 64.3659 117.197 61.749 113.884 61.8334C110.571 61.9179 107.955 64.6717 108.04 67.9844C108.125 71.297 110.879 73.9139 114.191 73.8295Z" fill="#F2F2F2"/>
<path d="M134.973 200.637C137.293 200.602 139.145 198.7 139.11 196.39C139.074 194.08 137.164 192.236 134.843 192.272C132.523 192.308 130.67 194.209 130.706 196.519C130.742 198.829 132.652 200.673 134.973 200.637Z" fill="#EC7905"/>
</svg>
